<svg width="128" height="128" viewBox="0 0 128 128" fill="none" xmlns="http://www.w3.org/2000/svg">
  <g opacity="0.96">
    <path d="M50.6924 0.196116C50.4104 0.3562 50.1852 0.756409 50.1852 1.0766C50.1852 1.98376 54.4704 7.18661 57.9384 10.4684C61.3496 13.7236 63.3796 15.2711 66.9884 17.4056C68.3136 18.206 69.2724 18.8998 69.1596 18.9531C68.7648 19.1932 65.6072 19.6735 64.5076 19.6735C62.7032 19.6735 61.5752 21.1677 62.2236 22.7685C62.3928 23.1955 66.2556 25.7035 69.4416 27.3844C70.3436 27.8647 71.0204 28.3183 70.964 28.3716C70.9076 28.425 69.6104 28.3716 68.06 28.2382C57.0924 27.251 45.4484 27.8113 35.2141 29.7591C32.7612 30.2393 31.4079 30.6129 31.267 30.8797C31.1542 31.0931 30.7595 32.4539 30.4212 33.8947C29.7727 36.4828 29.7445 36.5361 30.3084 36.9097C30.5903 37.1231 31.0414 37.2299 31.267 37.1498C32.3947 36.8296 42.3472 35.4155 46.52 34.9886C56.3312 33.9747 71.6968 34.4817 85.4272 36.2693L88.1056 36.6162L80.3524 36.7763C68.4828 37.0431 61.8008 37.7902 31.1542 42.1925C25.5718 42.9931 17.2546 44.1405 12.6872 44.7541C8.11984 45.3408 3.55242 45.9548 2.53744 46.0881C0.620264 46.355 0 46.7819 0 47.8222C0 48.1424 0.225551 48.5963 0.507488 48.8363C1.52247 49.6899 13.5048 52.7584 22.696 54.4928C25.4872 55.0262 28.081 55.5066 28.4476 55.5865C29.0114 55.6932 28.7013 55.9601 26.3894 57.2941C22.0476 59.8023 18.3824 62.5236 12.5181 67.6468L9.64228 70.1281L9.47312 71.7824C9.24756 73.8098 9.69868 78.6926 10.4599 82.2146C12.7154 92.754 19.4819 104.147 29.1806 113.805C33.3251 117.941 40.8812 124.078 45.4204 127.013L46.9708 128L50.4668 126.693C66.0864 120.876 78.8016 114.099 89.9948 105.641C94.534 102.199 102.231 94.9949 105.445 91.1796C112.888 82.3482 118.076 72.5826 120.247 63.3242C120.67 61.5633 120.67 61.1896 120.36 60.9228C120.134 60.7361 117.709 59.6422 114.974 58.4683C112.212 57.3209 109.956 56.3072 109.956 56.2269C109.956 56.1471 111.704 55.7735 113.847 55.3733C123.602 53.559 128 51.5043 128 48.7295C128 45.501 120.134 41.6058 106.686 38.2704L102.203 37.1498L99.7496 27.9448C96.8176 16.952 96.282 15.778 93.0396 12.7097C90.2484 10.0415 88.5852 9.32114 79.7884 6.86644C75.9824 5.82587 69.1312 3.87816 64.564 2.54407C57.4592 0.516285 55.88 0.142744 53.7092 0.0360169C52.1304 -0.0440255 50.9744 0.00934573 50.6924 0.196116ZM84.1868 50.1972C92.9552 56.4139 93.0116 56.4404 95.154 56.8939C96.3664 57.1608 97.8324 57.2941 98.4528 57.2142C99.5808 57.0809 99.5808 57.0809 99.4116 57.8547C98.932 60.2024 96.1408 64.1248 94.0548 65.4319C93.3496 65.8589 92.7012 66.4192 92.6168 66.6327C92.5604 66.8462 92.3628 68.9005 92.194 71.1952C91.6864 78.3993 90.756 80.3204 85.0328 85.7101C72.458 97.5565 61.8008 107.108 60.4756 107.722C59.1788 108.336 58.7276 108.389 55.4008 108.389C51.5384 108.362 48.3808 107.962 47.0272 107.295C45.9276 106.762 44.4336 104.547 43.4468 101.959L42.6292 99.8244L44.6028 99.3709C46.6324 98.917 51.764 96.7294 54.2732 95.2353L55.6828 94.3813H52.0176C48.1268 94.3813 45.0536 94.0611 43.8696 93.5542C43.1364 93.234 42.0652 91.1796 42.4036 90.6992C42.488 90.566 43.1928 90.6727 44.0668 90.9396C45.082 91.2595 47.1964 91.5264 50.2132 91.7134C52.7508 91.8735 55.6264 92.1135 56.5852 92.2736C58.5584 92.5938 58.9252 92.4871 58.9252 91.5532C58.9252 90.5126 57.5436 90.139 52.666 89.8456C46.4636 89.472 45.392 89.3119 44.0388 88.7248C42.9672 88.2448 42.8264 88.0847 42.9112 87.3643C42.9956 86.5637 43.0236 86.5637 45.674 86.0568C47.14 85.7634 48.8316 85.3364 49.4236 85.0961C50.5232 84.6426 50.5232 84.6426 46.3224 84.6426C42.7136 84.6426 42.0372 84.5627 41.2476 84.1357C40.2888 83.5755 39.7533 82.7215 39.7533 81.6809C39.7533 81.3341 40.712 79.0663 41.896 76.6917C46.2096 67.9935 46.9144 65.6454 46.7452 60.7626L46.6608 58.2279L44.4052 57.8986L41.896 57.4985C41.7832 57.4985 38.4846 56.6979 38.4846 56.6979L35.496 56.0309C35.496 56.0309 33.1278 55.4437 33.1278 55.3639C33.1278 55.2571 34.8476 55.2397 36.4546 54.9195C48.578 52.3847 60.3912 48.9695 70.0616 45.1811C74.9392 43.2865 73.9244 42.9397 84.1868 50.1972ZM38.8793 65.192C39.7251 65.3521 39.7815 65.4319 39.6123 66.2057C38.9639 69.4074 37.0749 74.6369 36.4828 74.8239C36.1163 74.9307 34.7066 71.6756 33.6916 68.3672C32.6203 64.8717 32.5357 65.0318 35.496 65.0318C36.8775 65.0318 38.4 65.1117 38.8793 65.192ZM85.54 89.3384C79.3092 101.105 69.7796 111.804 60.3628 117.648C59.2072 118.341 58.2204 118.901 58.164 118.821C58.1076 118.768 59.2636 116.767 60.7296 114.366C62.844 110.871 63.6616 109.777 64.7612 108.95C71.0484 104.227 78.4352 96.916 84.5816 89.3653C85.5684 88.1645 86.414 87.2307 86.4704 87.284C86.5268 87.3374 86.132 88.2713 85.54 89.3384Z" fill="#393939" />
    <path d="M60.6163 59.6962L53.4271 60.1672L51.8763 60.0339L50.4667 59.5002C50.4667 59.5002 49.1135 58.5129 49.0571 58.5663C49.0007 58.6197 49.9591 61.4841 50.2975 62.8715L50.9179 65.4062L51.5379 64.6324L52.1583 63.8852L56.7819 64.8724C63.6051 66.34 64.0279 66.34 66.7063 65.246C69.7511 63.9919 73.6419 61.6173 73.5291 61.0571C73.3319 60.0699 64.2535 59.1095 60.6163 59.6962Z" fill="#393939" />
  </g>
</svg>
  