<svg width="32" height="34" viewBox="0 0 32 34" fill="none" xmlns="http://www.w3.org/2000/svg">
  <path d="M12.6731 0.0518481C12.6026 0.0941389 12.5463 0.199865 12.5463 0.284446C12.5463 0.524094 13.6176 1.89854 14.4846 2.7655C15.3374 3.62542 15.8449 4.03423 16.7471 4.5981C17.0784 4.80956 17.3181 4.99282 17.2899 5.00691C17.1912 5.07035 16.4018 5.19722 16.1269 5.19722C15.6758 5.19722 15.3938 5.59194 15.5559 6.01484C15.5982 6.12762 16.5639 6.79017 17.3604 7.23423C17.5859 7.3611 17.7551 7.48092 17.741 7.49502C17.7269 7.50912 17.4026 7.49502 17.015 7.45978C14.2731 7.19899 11.3621 7.347 8.80352 7.86154C8.19031 7.98841 7.85198 8.08709 7.81674 8.15758C7.78855 8.21396 7.68987 8.57343 7.60529 8.95405C7.44317 9.63775 7.43612 9.65185 7.57709 9.75053C7.64758 9.80692 7.76035 9.83511 7.81674 9.81396C8.09868 9.72938 10.5868 9.35581 11.63 9.24304C14.0828 8.9752 17.9242 9.10912 21.3568 9.58136L22.0264 9.67299L20.0881 9.71529C17.1207 9.78577 15.4502 9.98313 7.78855 11.1461C6.39295 11.3576 4.31366 11.6607 3.17181 11.8228C2.02996 11.9778 0.888106 12.14 0.634361 12.1752C0.155066 12.2457 0 12.3585 0 12.6333C0 12.7179 0.0563877 12.8378 0.126872 12.9012C0.380617 13.1267 3.37621 13.9373 5.67401 14.3955C6.37181 14.5364 7.02026 14.6633 7.11189 14.6844C7.25286 14.7126 7.17533 14.7831 6.59736 15.1355C5.51189 15.7981 4.59559 16.517 3.12952 17.8704L2.41057 18.5259L2.36828 18.9629C2.31189 19.4985 2.42467 20.7884 2.61498 21.7188C3.17885 24.503 4.87048 27.5126 7.29515 30.0642C8.33128 31.1567 10.2203 32.7778 11.3551 33.5532L11.7427 33.814L12.6167 33.4686C16.5216 31.932 19.7004 30.1417 22.4987 27.9074C23.6335 26.9981 25.5577 25.095 26.3612 24.0871C28.222 21.7541 29.5189 19.1743 30.0617 16.7285C30.1674 16.2633 30.1674 16.1646 30.0899 16.0941C30.0335 16.0448 29.4273 15.7558 28.7436 15.4457C28.0529 15.1426 27.489 14.8748 27.489 14.8536C27.489 14.8325 27.926 14.7338 28.4617 14.6281C30.9004 14.1488 32 13.606 32 12.873C32 12.0201 30.0335 10.9911 26.6714 10.11L25.5507 9.81396L24.9374 7.38225C24.2044 4.47828 24.0705 4.16815 23.2599 3.35757C22.5621 2.65273 22.1463 2.46242 19.9471 1.81396C18.9956 1.53907 17.2828 1.02453 16.141 0.672112C14.3648 0.136429 13.97 0.0377508 13.4273 0.00955694C13.0326 -0.0115884 12.7436 0.00250891 12.6731 0.0518481ZM21.0467 13.2607C23.2388 14.903 23.2529 14.91 23.7885 15.0298C24.0916 15.1003 24.4581 15.1355 24.6132 15.1144C24.8952 15.0792 24.8952 15.0792 24.8529 15.2836C24.733 15.9038 24.0352 16.94 23.5137 17.2853C23.3374 17.3981 23.1753 17.5461 23.1542 17.6025C23.1401 17.6589 23.0907 18.2016 23.0485 18.8078C22.9216 20.7109 22.689 21.2184 21.2581 22.6422C18.1145 25.7717 15.4502 28.295 15.1189 28.4571C14.7947 28.6193 14.6819 28.6333 13.8502 28.6333C12.8846 28.6263 12.0952 28.5206 11.7568 28.3444C11.4819 28.2034 11.1084 27.6184 10.8617 26.9347L10.6573 26.3708L11.1507 26.251C11.6581 26.1311 12.941 25.5532 13.5683 25.1585L13.9207 24.9329H13.0044C12.0317 24.9329 11.2634 24.8483 10.9674 24.7144C10.7841 24.6298 10.5163 24.0871 10.6009 23.9602C10.622 23.925 10.7982 23.9532 11.0167 24.0237C11.2705 24.1082 11.7991 24.1787 12.5533 24.2281C13.1877 24.2704 13.9066 24.3338 14.1463 24.3761C14.6396 24.4607 14.7313 24.4325 14.7313 24.1858C14.7313 23.9109 14.3859 23.8122 13.1665 23.7347C11.6159 23.636 11.348 23.5937 11.0097 23.4386C10.7418 23.3118 10.7066 23.2695 10.7278 23.0792C10.7489 22.8677 10.7559 22.8677 11.4185 22.7338C11.785 22.6563 12.2079 22.5435 12.3559 22.48C12.6308 22.3602 12.6308 22.3602 11.5806 22.3602C10.6784 22.3602 10.5093 22.3391 10.3119 22.2263C10.0722 22.0783 9.93833 21.8527 9.93833 21.5778C9.93833 21.4862 10.178 20.8871 10.474 20.2598C11.5524 17.962 11.7286 17.3417 11.6863 16.0518L11.6652 15.3822L11.1013 15.2952L10.474 15.1895C10.4458 15.1895 9.62114 14.978 9.62114 14.978L8.87401 14.8018C8.87401 14.8018 8.28194 14.6467 8.28194 14.6256C8.28194 14.5974 8.71189 14.5928 9.11366 14.5082C12.1445 13.8386 15.0978 12.9364 17.5154 11.9355C18.7348 11.4351 18.4811 11.3435 21.0467 13.2607ZM9.71982 17.2219C9.93128 17.2642 9.94537 17.2853 9.90308 17.4897C9.74097 18.3355 9.26872 19.717 9.12071 19.7664C9.02908 19.7946 8.67665 18.9347 8.42291 18.0607C8.15507 17.1373 8.13392 17.1796 8.87401 17.1796C9.21938 17.1796 9.6 17.2007 9.71982 17.2219ZM21.385 23.6007C19.8273 26.7091 17.4449 29.5356 15.0907 31.0792C14.8018 31.2624 14.5551 31.4104 14.541 31.3893C14.5269 31.3752 14.8159 30.8466 15.1824 30.2122C15.711 29.2889 15.9154 28.9999 16.1903 28.7814C17.7621 27.5338 19.6088 25.6025 21.1454 23.6078C21.3921 23.2906 21.6035 23.0439 21.6176 23.058C21.6317 23.0721 21.533 23.3188 21.385 23.6007Z" fill="#393939" />
  <path d="M15.1541 15.7699L13.3568 15.8943L12.9691 15.8591L12.6167 15.7181C12.6167 15.7181 12.2784 15.4573 12.2643 15.4714C12.2502 15.4855 12.4898 16.2422 12.5744 16.6087L12.7295 17.2783L12.8845 17.0739L13.0396 16.8765L14.1955 17.1373C15.9013 17.525 16.007 17.525 16.6766 17.236C17.4378 16.9047 18.4105 16.2774 18.3823 16.1294C18.333 15.8686 16.0634 15.6149 15.1541 15.7699Z" fill="#393939" />
</svg>
  